<svg xmlns="http://www.w3.org/2000/svg" width="26.133" height="24" viewBox="0 0 26.133 24">
  <path id="Bag_Lamp_Office_Productivity_Efficiency_Performance_Optimization" data-name="Bag Lamp Office Productivity Efficiency Performance Optimization" d="M33.367,14.833H27.233v-2.4A2.937,2.937,0,0,0,24.3,9.5H16.833A2.936,2.936,0,0,0,13.9,12.433v2.4H7.767A.267.267,0,0,0,7.5,15.1V33.233a.267.267,0,0,0,.267.267h25.6a.267.267,0,0,0,.267-.267V15.1A.267.267,0,0,0,33.367,14.833Zm-18.933-2.4a2.4,2.4,0,0,1,2.4-2.4H24.3a2.4,2.4,0,0,1,2.4,2.4v2.4H14.433ZM33.1,15.367V22.3H29.367v-.8a.267.267,0,0,0-.533,0v.8H12.3v-.8a.267.267,0,0,0-.533,0v.8H8.033V15.367ZM8.033,32.967V22.833h3.733v.8a.267.267,0,0,0,.533,0v-.8H28.833v.8a.267.267,0,0,0,.533,0v-.8H33.1V32.967Z" transform="translate(-7.5 -9.5)" fill="#686868"/>
</svg>
